<svg width="18" height="18" viewBox="0 0 18 18" fill="none" xmlns="http://www.w3.org/2000/svg">
<g clip-path="url(#clip0)">
<path d="M3.98918 10.8776L3.36263 13.2166L1.07258 13.265C0.388195 11.9956 0 10.5433 0 8.99995C0 7.50753 0.362953 6.10015 1.00631 4.86093H1.0068L3.04559 5.23471L3.9387 7.26126C3.75177 7.80622 3.64989 8.39122 3.64989 8.99995C3.64996 9.6606 3.76963 10.2936 3.98918 10.8776Z" fill="#FBBB00"/>
<path d="M17.8428 7.31866C17.9462 7.86309 18.0001 8.42535 18.0001 8.99998C18.0001 9.64432 17.9323 10.2728 17.8033 10.8791C17.3651 12.9422 16.2203 14.7437 14.6345 16.0185L14.634 16.018L12.066 15.887L11.7026 13.6182C12.7549 13.001 13.5773 12.0353 14.0105 10.8791H9.19792V7.31866H14.0807H17.8428Z" fill="#518EF8"/>
<path d="M14.6339 16.0181L14.6344 16.0186C13.092 17.2583 11.1328 18.0001 8.99997 18.0001C5.57255 18.0001 2.59267 16.0844 1.07255 13.2652L3.98915 10.8777C4.74919 12.9062 6.70595 14.3501 8.99997 14.3501C9.98599 14.3501 10.9098 14.0836 11.7024 13.6183L14.6339 16.0181Z" fill="#28B446"/>
<path d="M14.7446 2.07197L11.829 4.45894C11.0087 3.94615 10.0389 3.64992 8.99997 3.64992C6.65403 3.64992 4.66067 5.16013 3.9387 7.26131L1.00678 4.86098H1.00629C2.50415 1.97307 5.52162 0 8.99997 0C11.1837 0 13.186 0.777867 14.7446 2.07197Z" fill="#F14336"/>
</g>
<defs>
<clipPath id="clip0">
<rect width="18" height="18" fill="white"/>
</clipPath>
</defs>
</svg>
