<svg width="21" height="10" viewBox="0 0 21 10" fill="none" xmlns="http://www.w3.org/2000/svg">
<path d="M19.838 4.194H2.75897L5.58797 1.379C5.73955 1.22809 5.82496 1.02315 5.82543 0.809267C5.8259 0.595382 5.74138 0.390068 5.59047 0.238497C5.43957 0.0869256 5.23463 0.00150839 5.02074 0.00103954C4.80686 0.000570685 4.60155 0.0850862 4.44997 0.235994L0.236974 4.428C0.161928 4.50295 0.102392 4.59197 0.0617722 4.68994C0.021152 4.78792 0.000244141 4.89293 0.000244141 4.99899C0.000244141 5.10506 0.021152 5.21008 0.0617722 5.30806C0.102392 5.40604 0.161928 5.49506 0.236974 5.57001L4.45097 9.76401C4.60255 9.91492 4.80786 9.99943 5.02174 9.99896C5.23563 9.9985 5.44057 9.91308 5.59147 9.76151C5.74238 9.60994 5.8269 9.40462 5.82643 9.19074C5.82596 8.97685 5.74055 8.77191 5.58897 8.621L2.75997 5.806H19.838C20.0519 5.806 20.257 5.72103 20.4083 5.56978C20.5595 5.41853 20.6445 5.2134 20.6445 4.9995C20.6445 4.7856 20.5595 4.58046 20.4083 4.42922C20.257 4.27797 20.0519 4.193 19.838 4.193V4.194Z" fill="black"/>
</svg>
